<?xml version="1.0" encoding="utf-8"?>
<svg width="96" height="96" viewBox="0 0 25.399999 25.400001" version="1.1" id="svg8" xmlns="http://www.w3.org/2000/svg">
  <rect style="fill-opacity: 1; stroke-width: 1.04949; stroke-linejoin: round; stroke-miterlimit: 4; stroke-dasharray: none; stroke-opacity: 1; fill: rgb(255, 255, 255); stroke: rgb(255, 255, 255);" id="rect-2" width="23.777" height="14.092" x="6.134" y="19.701" transform="matrix(1, 0.000654, -0.000654, 1, -5.403221, -14.6385)"/>
  <line style="stroke: rgb(91, 157, 255); stroke-width: 2px;" x1="9.656" y1="4.222" x2="13.439" y2="7.927"/>
  <line style="stroke: rgb(91, 157, 255); stroke-width: 2px;" x1="13.218" y1="6.745" x2="9.094" y2="11.317"/>
  <line style="stroke: rgb(91, 157, 255); stroke-width: 2px;" x1="9.704" y1="10.402" x2="12.976" y2="13.65"/>
  <line style="stroke: rgb(91, 157, 255); stroke-width: 2px;" x1="12.923" y1="12.275" x2="8.977" y2="16.255"/>
  <line style="stroke: rgb(91, 157, 255); stroke-width: 2px;" x1="9.381" y1="15.208" x2="12.798" y2="18.805"/>
  <line style="stroke: rgb(91, 157, 255); stroke-width: 2px;" x1="12.392" y1="17.8" x2="9.469" y2="20.629"/>
  <line style="stroke: rgb(91, 157, 255); stroke-width: 2px;" x1="11.85" y1="4.059" x2="15.633" y2="7.764"/>
  <line style="stroke: rgb(91, 157, 255); stroke-width: 2px;" x1="15.413" y1="6.582" x2="11.289" y2="11.154"/>
  <line style="stroke: rgb(91, 157, 255); stroke-width: 2px;" x1="11.899" y1="10.239" x2="15.171" y2="13.487"/>
  <line style="stroke: rgb(91, 157, 255); stroke-width: 2px;" x1="15.118" y1="12.112" x2="11.172" y2="16.092"/>
  <line style="stroke: rgb(91, 157, 255); stroke-width: 2px;" x1="11.576" y1="15.045" x2="14.993" y2="18.642"/>
  <line style="stroke: rgb(91, 157, 255); stroke-width: 2px;" x1="14.587" y1="17.637" x2="11.664" y2="20.466"/>
</svg>